<?xml version="1.0" standalone="no"?><svg xmlns="http://www.w3.org/2000/svg" viewBox="0 0 1440 1320"><path fill="#131110" fill-opacity="1" d="M0,96L0,96L57.6,96L57.6,128L115.2,128L115.2,32L172.8,32L172.8,32L230.4,32L230.4,192L288,192L288,128L345.6,128L345.6,64L403.2,64L403.2,192L460.8,192L460.8,64L518.4,64L518.4,256L576,256L576,192L633.6,192L633.6,320L691.2,320L691.2,256L748.8,256L748.8,96L806.4,96L806.4,288L864,288L864,192L921.6,192L921.6,224L979.2,224L979.2,96L1036.8,96L1036.8,288L1094.4,288L1094.4,96L1152,96L1152,224L1209.6,224L1209.6,64L1267.2,64L1267.2,64L1324.8,64L1324.8,64L1382.4,64L1382.4,192L1440,192L1440,0L1382.4,0L1382.4,0L1324.8,0L1324.8,0L1267.2,0L1267.2,0L1209.6,0L1209.6,0L1152,0L1152,0L1094.4,0L1094.4,0L1036.8,0L1036.8,0L979.2,0L979.2,0L921.6,0L921.6,0L864,0L864,0L806.4,0L806.4,0L748.8,0L748.8,0L691.2,0L691.2,0L633.6,0L633.6,0L576,0L576,0L518.4,0L518.4,0L460.8,0L460.8,0L403.2,0L403.2,0L345.6,0L345.6,0L288,0L288,0L230.4,0L230.4,0L172.8,0L172.8,0L115.2,0L115.2,0L57.6,0L57.6,0L0,0L0,0Z"></path></svg>